<?xml version="1.0" encoding="UTF-8" standalone="no"?>
<!DOCTYPE svg PUBLIC "-//W3C//DTD SVG 1.1//EN" "http://www.w3.org/Graphics/SVG/1.1/DTD/svg11.dtd">
<svg xmlns="http://www.w3.org/2000/svg" xmlns:xlink="http://www.w3.org/1999/xlink" version="1.1" width="860.1638pt" height="631.4611pt" viewBox="0 0 860.1638 631.4611">
<g enable-background="new">
<clipPath id="cp0">
<path transform="matrix(2.7777777,0,0,2.7777777,-629.49166,-345.88334)" d="M 0 0 L 733.25 0 L 733.25 511.6 L 0 511.6 Z " fill-rule="evenodd"/>
</clipPath>
<g clip-path="url(#cp0)">
<path transform="matrix(2.7777777,0,0,2.7777777,-629.49166,-345.88334)" d="M 0 0 L 733.2 0 L 733.2 511.56 L 0 511.56 Z " fill="#ffffff" fill-rule="evenodd"/>
<path transform="matrix(2.7777777,0,0,2.7777777,-629.49166,-345.88334)" d="M 226.8 125.04 L 276.72 125.04 L 276.72 150.12 L 226.8 150.12 Z " fill="#5f5f5f" fill-rule="evenodd"/>
<path transform="matrix(2.7777777,0,0,2.7777777,-629.49166,-345.88334)" d="M 276.72 125.04 L 326.64 125.04 L 326.64 150.12 L 276.72 150.12 Z " fill="#5f5f5f" fill-rule="evenodd"/>
<path transform="matrix(2.7777777,0,0,2.7777777,-629.49166,-345.88334)" d="M 326.64 125.04 L 376.56 125.04 L 376.56 150.12 L 326.64 150.12 Z " fill="#5f5f5f" fill-rule="evenodd"/>
<path transform="matrix(2.7777777,0,0,2.7777777,-629.49166,-345.88334)" d="M 226.8 150.12 L 276.72 150.12 L 276.72 170.16 L 226.8 170.16 Z " fill="#cddfd1" fill-rule="evenodd"/>
<path transform="matrix(2.7777777,0,0,2.7777777,-629.49166,-345.88334)" d="M 276.72 150.12 L 326.64 150.12 L 326.64 170.16 L 276.72 170.16 Z " fill="#cddfd1" fill-rule="evenodd"/>
<path transform="matrix(2.7777777,0,0,2.7777777,-629.49166,-345.88334)" d="M 326.64 150.12 L 376.56 150.12 L 376.56 170.16 L 326.64 170.16 Z " fill="#cddfd1" fill-rule="evenodd"/>
<path transform="matrix(2.7777777,0,0,2.7777777,-629.49166,-345.88334)" d="M 226.8 170.16 L 276.72 170.16 L 276.72 190.20001 L 226.8 190.20001 Z " fill="#cddfd1" fill-rule="evenodd"/>
<path transform="matrix(2.7777777,0,0,2.7777777,-629.49166,-345.88334)" d="M 276.72 170.16 L 326.64 170.16 L 326.64 190.20001 L 276.72 190.20001 Z " fill="#cddfd1" fill-rule="evenodd"/>
<path transform="matrix(2.7777777,0,0,2.7777777,-629.49166,-345.88334)" d="M 326.64 170.16 L 376.56 170.16 L 376.56 190.20001 L 326.64 190.20001 Z " fill="#cddfd1" fill-rule="evenodd"/>
<path transform="matrix(2.7777777,0,0,2.7777777,-629.49166,-345.88334)" d="M 226.8 190.2 L 276.72 190.2 L 276.72 210.12 L 226.8 210.12 Z " fill="#cddfd1" fill-rule="evenodd"/>
<path transform="matrix(2.7777777,0,0,2.7777777,-629.49166,-345.88334)" d="M 276.72 190.2 L 326.64 190.2 L 326.64 210.12 L 276.72 210.12 Z " fill="#cddfd1" fill-rule="evenodd"/>
<path transform="matrix(2.7777777,0,0,2.7777777,-629.49166,-345.88334)" d="M 326.64 190.2 L 376.56 190.2 L 376.56 210.12 L 326.64 210.12 Z " fill="#cddfd1" fill-rule="evenodd"/>
<path transform="matrix(2.7777777,0,0,2.7777777,-629.49166,-345.88334)" d="M 226.8 210.12 L 276.72 210.12 L 276.72 230.16 L 226.8 230.16 Z " fill="#cddfd1" fill-rule="evenodd"/>
<path transform="matrix(2.7777777,0,0,2.7777777,-629.49166,-345.88334)" d="M 276.72 210.12 L 326.64 210.12 L 326.64 230.16 L 276.72 230.16 Z " fill="#cddfd1" fill-rule="evenodd"/>
<path transform="matrix(2.7777777,0,0,2.7777777,-629.49166,-345.88334)" d="M 326.64 210.12 L 376.56 210.12 L 376.56 230.16 L 326.64 230.16 Z " fill="#cddfd1" fill-rule="evenodd"/>
<path transform="matrix(2.7777777,0,0,2.7777777,-629.49166,-345.88334)" d="M 226.8 230.16 L 276.72 230.16 L 276.72 250.20001 L 226.8 250.20001 Z " fill="#cddfd1" fill-rule="evenodd"/>
<path transform="matrix(2.7777777,0,0,2.7777777,-629.49166,-345.88334)" d="M 276.72 230.16 L 326.64 230.16 L 326.64 250.20001 L 276.72 250.20001 Z " fill="#cddfd1" fill-rule="evenodd"/>
<path transform="matrix(2.7777777,0,0,2.7777777,-629.49166,-345.88334)" d="M 326.64 230.16 L 376.56 230.16 L 376.56 250.20001 L 326.64 250.20001 Z " fill="#cddfd1" fill-rule="evenodd"/>
<path transform="matrix(2.7777777,0,0,2.7777777,-629.49166,-345.88334)" d="M 226.8 250.2 L 276.72 250.2 L 276.72 270.24 L 226.8 270.24 Z " fill="#cddfd1" fill-rule="evenodd"/>
<path transform="matrix(2.7777777,0,0,2.7777777,-629.49166,-345.88334)" d="M 276.72 250.2 L 326.64 250.2 L 326.64 270.24 L 276.72 270.24 Z " fill="#cddfd1" fill-rule="evenodd"/>
<path transform="matrix(2.7777777,0,0,2.7777777,-629.49166,-345.88334)" d="M 326.64 250.2 L 376.56 250.2 L 376.56 270.24 L 326.64 270.24 Z " fill="#cddfd1" fill-rule="evenodd"/>
<path transform="matrix(2.7777777,0,0,2.7777777,-629.49166,-345.88334)" d="M 226.8 270.24 L 276.72 270.24 L 276.72 290.28 L 226.8 290.28 Z " fill="#cddfd1" fill-rule="evenodd"/>
<path transform="matrix(2.7777777,0,0,2.7777777,-629.49166,-345.88334)" d="M 276.72 270.24 L 326.64 270.24 L 326.64 290.28 L 276.72 290.28 Z " fill="#cddfd1" fill-rule="evenodd"/>
<path transform="matrix(2.7777777,0,0,2.7777777,-629.49166,-345.88334)" d="M 326.64 270.24 L 376.56 270.24 L 376.56 290.28 L 326.64 290.28 Z " fill="#cddfd1" fill-rule="evenodd"/>
<path transform="matrix(2.7777777,0,0,2.7777777,-629.49166,-345.88334)" d="M 226.8 290.28 L 276.72 290.28 L 276.72 310.2 L 226.8 310.2 Z " fill="#cddfd1" fill-rule="evenodd"/>
<path transform="matrix(2.7777777,0,0,2.7777777,-629.49166,-345.88334)" d="M 276.72 290.28 L 326.64 290.28 L 326.64 310.2 L 276.72 310.2 Z " fill="#cddfd1" fill-rule="evenodd"/>
<path transform="matrix(2.7777777,0,0,2.7777777,-629.49166,-345.88334)" d="M 326.64 290.28 L 376.56 290.28 L 376.56 310.2 L 326.64 310.2 Z " fill="#cddfd1" fill-rule="evenodd"/>
<path transform="matrix(2.7777777,0,0,2.7777777,-629.49166,-345.88334)" d="M 226.8 310.2 L 276.72 310.2 L 276.72 330.36003 L 226.8 330.36003 Z " fill="#cddfd1" fill-rule="evenodd"/>
<path transform="matrix(2.7777777,0,0,2.7777777,-629.49166,-345.88334)" d="M 276.72 310.2 L 326.64 310.2 L 326.64 330.36003 L 276.72 330.36003 Z " fill="#cddfd1" fill-rule="evenodd"/>
<path transform="matrix(2.7777777,0,0,2.7777777,-629.49166,-345.88334)" d="M 326.64 310.2 L 376.56 310.2 L 376.56 330.36003 L 326.64 330.36003 Z " fill="#cddfd1" fill-rule="evenodd"/>
<path transform="matrix(2.7777777,0,0,2.7777777,-629.49166,-345.88334)" d="M 226.8 330.36 L 276.72 330.36 L 276.72 350.28 L 226.8 350.28 Z " fill="#cddfd1" fill-rule="evenodd"/>
<path transform="matrix(2.7777777,0,0,2.7777777,-629.49166,-345.88334)" d="M 276.72 330.36 L 326.64 330.36 L 326.64 350.28 L 276.72 350.28 Z " fill="#cddfd1" fill-rule="evenodd"/>
<path transform="matrix(2.7777777,0,0,2.7777777,-629.49166,-345.88334)" d="M 326.64 330.36 L 376.56 330.36 L 376.56 350.28 L 326.64 350.28 Z " fill="#cddfd1" fill-rule="evenodd"/>
<path transform="matrix(2.7777777,0,0,2.7777777,-629.49166,-345.88334)" d="M 226.8 124.5 L 376.5 124.5 L 376.5 125.5 L 226.8 125.5 Z " fill="#ffffff"/>
<path transform="matrix(2.7777777,0,0,2.7777777,-629.49166,-345.88334)" d="M 226.8 148.6 L 376.5 148.6 L 376.5 151.6 L 226.8 151.6 Z " fill="#ffffff"/>
<path transform="matrix(2.7777777,0,0,2.7777777,-629.49166,-345.88334)" d="M 227.3 125 L 227.3 350.3 L 226.3 350.3 L 226.3 125 L 227.3 125 " fill="#ffffff"/>
<path transform="matrix(2.7777777,0,0,2.7777777,-629.49166,-345.88334)" d="M 277.2 125 L 277.2 350.3 L 276.2 350.3 L 276.2 125 L 277.2 125 " fill="#ffffff"/>
<path transform="matrix(2.7777777,0,0,2.7777777,-629.49166,-345.88334)" d="M 327.1 125 L 327.1 350.3 L 326.1 350.3 L 326.1 125 L 327.1 125 " fill="#ffffff"/>
<path transform="matrix(2.7777777,0,0,2.7777777,-629.49166,-345.88334)" d="M 377 125 L 377 350.3 L 376 350.3 L 376 125 L 377 125 " fill="#ffffff"/>
<path transform="matrix(2.7777777,0,0,2.7777777,-629.49166,-345.88334)" d="M 226.8 169.65 L 376.5 169.65 L 376.5 170.65 L 226.8 170.65 Z " fill="#ffffff"/>
<path transform="matrix(2.7777777,0,0,2.7777777,-629.49166,-345.88334)" d="M 226.8 189.65 L 376.5 189.65 L 376.5 190.65 L 226.8 190.65 Z " fill="#ffffff"/>
<path transform="matrix(2.7777777,0,0,2.7777777,-629.49166,-345.88334)" d="M 226.8 209.65 L 376.5 209.65 L 376.5 210.65 L 226.8 210.65 Z " fill="#ffffff"/>
<path transform="matrix(2.7777777,0,0,2.7777777,-629.49166,-345.88334)" d="M 226.8 229.7 L 376.5 229.7 L 376.5 230.7 L 226.8 230.7 Z " fill="#ffffff"/>
<path transform="matrix(2.7777777,0,0,2.7777777,-629.49166,-345.88334)" d="M 226.8 249.7 L 376.5 249.7 L 376.5 250.7 L 226.8 250.7 Z " fill="#ffffff"/>
<path transform="matrix(2.7777777,0,0,2.7777777,-629.49166,-345.88334)" d="M 226.8 269.75 L 376.5 269.75 L 376.5 270.75 L 226.8 270.75 Z " fill="#ffffff"/>
<path transform="matrix(2.7777777,0,0,2.7777777,-629.49166,-345.88334)" d="M 226.8 289.75 L 376.5 289.75 L 376.5 290.75 L 226.8 290.75 Z " fill="#ffffff"/>
<path transform="matrix(2.7777777,0,0,2.7777777,-629.49166,-345.88334)" d="M 226.8 309.75 L 376.5 309.75 L 376.5 310.75 L 226.8 310.75 Z " fill="#ffffff"/>
<path transform="matrix(2.7777777,0,0,2.7777777,-629.49166,-345.88334)" d="M 226.8 329.8 L 376.5 329.8 L 376.5 330.8 L 226.8 330.8 Z " fill="#ffffff"/>
<path transform="matrix(2.7777777,0,0,2.7777777,-629.49166,-345.88334)" d="M 226.8 349.8 L 376.5 349.8 L 376.5 350.8 L 226.8 350.8 Z " fill="#ffffff"/>
</g>
<clipPath id="cp1">
<path transform="matrix(2.7777777,0,0,2.7777777,-629.49166,-345.88334)" d="M 0 0 L 733.25 0 L 733.25 511.6 L 0 511.6 Z " fill-rule="evenodd"/>
</clipPath>
<g clip-path="url(#cp1)">
<clipPath id="cp2">
<path transform="matrix(2.7777777,0,0,2.7777777,-629.49166,-345.88334)" d="M 226.8 0 L 276.7 0 L 276.7 511.6 L 226.8 511.6 Z " fill-rule="evenodd"/>
</clipPath>
<g clip-path="url(#cp2)">
<symbol id="font_3_35">
<path d="M .24707031 .3017578 L .24707031 .11621094 C .24707031 .08040365 .2491862 .05777995 .25341798 .048339845 C .25797526 .03922526 .26578776 .031901044 .27685548 .026367188 C .2879232 .020833334 .30859376 .018066407 .3388672 .018066407 L .3388672 0 L 0 0 L 0 .018066407 C .030598959 .018066407 .05126953 .020833334 .06201172 .026367188 C .07307943 .032226564 .080729167 .039713544 .08496094 .048828126 C .08951823 .057942708 .091796878 .08040365 .091796878 .11621094 L .091796878 .54589846 C .091796878 .58170577 .08951823 .6041667 .08496094 .61328127 C .080729167 .6227214 .07307943 .6302083 .06201172 .6357422 C .05094401 .64127609 .030273438 .64404299 0 .64404299 L 0 .6621094 L .3076172 .6621094 C .3876953 .6621094 .44628907 .6565755 .48339845 .6455078 C .5205078 .6344401 .55078127 .6139323 .57421877 .5839844 C .59765627 .554362 .609375 .51953127 .609375 .4794922 C .609375 .43066407 .5917969 .39029948 .5566406 .35839845 C .5341797 .33821617 .5027669 .32307945 .46240235 .31298829 L .62158206 .08886719 C .64241537 .059895833 .65722659 .041829427 .6660156 .03466797 C .679362 .024576823 .6948242 .019042969 .71240237 .018066407 L .71240237 0 L .50390627 0 L .29052735 .3017578 L .24707031 .3017578 M .24707031 .62646487 L .24707031 .33642579 L .27490235 .33642579 C .32014976 .33642579 .3540039 .34049479 .37646485 .3486328 C .39892579 .35709635 .4165039 .3720703 .42919923 .3935547 C .44222007 .4153646 .44873048 .4436849 .44873048 .47851563 C .44873048 .5289714 .43684898 .56624349 .41308595 .59033206 C .38964845 .6144206 .35172526 .62646487 .2993164 .62646487 L .24707031 .62646487 Z "/>
</symbol>
<symbol id="font_3_44">
<path d="M .24072266 .07373047 C .1850586 .024576823 .13509114 0 .09082031 0 C .06477865 0 .04313151 .008463542 .025878907 .025390625 C .008626302 .04264323 0 .0641276 0 .08984375 C 0 .12467448 .014973958 .15592449 .044921876 .18359375 C .07486979 .21158855 .14013672 .24869792 .24072266 .29492188 L .24072266 .3408203 C .24072266 .37532554 .23876953 .39697267 .23486328 .40576173 C .23128255 .4148763 .22428386 .4226888 .21386719 .42919923 C .20345052 .43603517 .19173177 .43945313 .17871094 .43945313 C .15755208 .43945313 .14013672 .43473307 .12646485 .42529298 C .118001308 .4194336 .11376953 .41259767 .11376953 .40478517 C .11376953 .39794923 .11832682 .3894857 .1274414 .37939454 C .1398112 .36539714 .1459961 .35188804 .1459961 .3388672 C .1459961 .32291667 .13997396 .30924479 .12792969 .29785157 C .11621094 .28678385 .100748699 .28125 .08154297 .28125 C .061035158 .28125 .04378255 .2874349 .029785157 .2998047 C .016113282 .31217448 .009277344 .32666017 .009277344 .34326173 C .009277344 .36669923 .018554688 .3889974 .037109376 .41015626 C .055664064 .43164063 .08154297 .44807945 .114746097 .45947267 C .14794922 .47086589 .18245442 .4765625 .21826172 .4765625 C .261556 .4765625 .2957357 .46728517 .32080079 .44873048 C .3461914 .4305013 .36263023 .41064454 .3701172 .38916017 C .37467448 .37548829 .37695313 .34407554 .37695313 .29492188 L .37695313 .11767578 C .37695313 .096842449 .37776695 .08365885 .37939454 .078125 C .38102214 .072916667 .38346354 .069010417 .38671876 .06640625 C .38997398 .063802089 .39371745 .0625 .39794923 .0625 C .40641276 .0625 .41503907 .06852213 .42382813 .080566409 L .43847657 .068847659 C .42220054 .044759115 .40527345 .02718099 .3876953 .016113282 C .37044273 .0053710939 .3507487 0 .32861329 0 C .30257163 0 .28222657 .0060221354 .26757813 .018066407 C .2529297 .030436198 .24397786 .048990888 .24072266 .07373047 M .24072266 .109375 L .24072266 .26220704 C .20133464 .23909505 .17203777 .21435547 .15283203 .18798828 C .14013672 .17041016 .13378906 .15266927 .13378906 .13476563 C .13378906 .119791667 .13916016 .10660807 .14990235 .095214847 C .15804036 .08642578 .1694336 .08203125 .18408203 .08203125 C .20035808 .08203125 .21923828 .091145839 .24072266 .109375 Z "/>
</symbol>
<symbol id="font_3_51">
<path d="M .18603516 .45654298 L .18603516 .39746095 C .20947266 .42285157 .2319336 .4412435 .25341798 .45263673 C .27490235 .46435548 .2980143 .47021485 .3227539 .47021485 C .3523763 .47021485 .37695313 .46191407 .39648438 .4453125 C .41601563 .42903648 .42903648 .4086914 .43554688 .38427735 C .44075523 .36572267 .44335938 .33007813 .44335938 .27734376 L .44335938 .099609378 C .44335938 .064453128 .4464518 .04248047 .45263673 .033691408 C .45914714 .025227866 .4724935 .019856772 .49267579 .017578125 L .49267579 0 L .26171876 0 L .26171876 .017578125 C .27897135 .019856772 .29134117 .027018229 .29882813 .0390625 C .30403648 .04720052 .30664063 .06738281 .30664063 .099609378 L .30664063 .30273438 C .30664063 .34016929 .30517579 .36376954 .3022461 .37353517 C .2993164 .38330079 .29427085 .39078776 .28710938 .3959961 C .28027345 .40152995 .2726237 .40429688 .26416017 .40429688 C .23616536 .40429688 .2101237 .38427735 .18603516 .34423829 L .18603516 .099609378 C .18603516 .06542969 .18912761 .04378255 .1953125 .03466797 C .20182292 .025553385 .21370442 .019856772 .23095703 .017578125 L .23095703 0 L 0 0 L 0 .017578125 C .019205729 .01953125 .032877607 .025716147 .041015626 .036132814 C .04654948 .04329427 .049316408 .064453128 .049316408 .099609378 L .049316408 .35742188 C .049316408 .3919271 .0460612 .41341148 .03955078 .421875 C .033365888 .43033854 .020182291 .4358724 0 .43847657 L 0 .45654298 L .18603516 .45654298 Z "/>
</symbol>
<symbol id="font_3_4e">
<path d="M .18603516 .6621094 L .18603516 .2265625 L .2919922 .3305664 C .3138021 .35172526 .3273112 .36702476 .33251954 .37646485 C .33805339 .38590495 .3408203 .39501954 .3408203 .4038086 C .3408203 .41259767 .3372396 .41992188 .33007813 .42578126 C .32291667 .43164063 .30891929 .4358724 .28808595 .43847657 L .28808595 .45654298 L .49267579 .45654298 L .49267579 .43847657 C .47314454 .4375 .4560547 .43277995 .44140626 .4243164 C .4267578 .41617839 .39811198 .39127604 .35546876 .34960938 L .30566407 .30078126 L .41308595 .14355469 C .45638023 .0797526 .48209635 .043945314 .49023438 .036132814 C .50130209 .025065104 .5152995 .018880209 .53222659 .017578125 L .53222659 0 L .29638673 0 L .29638673 .017578125 C .30680339 .017578125 .31429038 .01953125 .31884767 .0234375 C .32373048 .02734375 .32617188 .03157552 .32617188 .036132814 C .32617188 .043619794 .31933595 .057454427 .30566407 .07763672 L .21533203 .20996094 L .18603516 .18115235 L .18603516 .099121097 C .18603516 .06429037 .18929036 .04248047 .19580078 .033691408 C .2023112 .025227866 .21565755 .019856772 .23583985 .017578125 L .23583985 0 L 0 0 L 0 .017578125 C .019205729 .01953125 .032877607 .025716147 .041015626 .036132814 C .04654948 .04329427 .049316408 .06429037 .049316408 .099121097 L .049316408 .5629883 C .049316408 .59749349 .0460612 .61897787 .03955078 .6274414 C .033365888 .63590499 .020182291 .6414388 0 .64404299 L 0 .6621094 L .18603516 .6621094 Z "/>
</symbol>
<use xlink:href="#font_3_35" transform="matrix(27.638888,0,0,-27.638888,37.965654,45.783327)" fill="#ffffff"/>
<use xlink:href="#font_3_44" transform="matrix(27.638888,0,0,-27.638888,58.69435,45.958768)" fill="#ffffff"/>
<use xlink:href="#font_3_51" transform="matrix(27.638888,0,0,-27.638888,72.28636,45.783327)" fill="#ffffff"/>
<use xlink:href="#font_3_4e" transform="matrix(27.638888,0,0,-27.638888,87.676059,45.783327)" fill="#ffffff"/>
</g>
</g>
<clipPath id="cp4">
<path transform="matrix(2.7777777,0,0,2.7777777,-629.49166,-345.88334)" d="M 0 0 L 733.25 0 L 733.25 511.6 L 0 511.6 Z " fill-rule="evenodd"/>
</clipPath>
<g clip-path="url(#cp4)">
<clipPath id="cp5">
<path transform="matrix(2.7777777,0,0,2.7777777,-629.49166,-345.88334)" d="M 276.7 0 L 326.6 0 L 326.6 511.6 L 276.7 511.6 Z " fill-rule="evenodd"/>
</clipPath>
<g clip-path="url(#cp5)">
<symbol id="font_3_30">
<path d="M .45654298 .22558594 L .63623049 .6621094 L .9057617 .6621094 L .9057617 .64404299 L .88427737 .64404299 C .8647461 .64404299 .8491211 .640625 .83740237 .63378909 C .82926437 .62923178 .8227539 .62158206 .8178711 .61083987 C .81429037 .60302737 .8125 .5826823 .8125 .5498047 L .8125 .11328125 C .8125 .079427089 .81429037 .05826823 .8178711 .049804689 C .82145187 .041341146 .82877609 .033854169 .83984377 .02734375 C .85091146 .021158854 .86572268 .018066407 .88427737 .018066407 L .9057617 .018066407 L .9057617 0 L .5600586 0 L .5600586 .018066407 L .58154299 .018066407 C .6010742 .018066407 .6166992 .021484375 .62841799 .028320313 C .63655599 .032877607 .6430664 .040690107 .6479492 .051757814 C .65152999 .059570314 .6533203 .080078128 .6533203 .11328125 L .6533203 .6040039 L .39941407 0 L .3876953 0 L .12988281 .5996094 L .12988281 .13330078 C .12988281 .100748699 .13069661 .080729167 .13232422 .07324219 C .13655599 .056966146 .14567058 .043619794 .15966797 .033203126 C .17399089 .023111979 .19628906 .018066407 .2265625 .018066407 L .2265625 0 L 0 0 L 0 .018066407 L .0068359377 .018066407 C .021484375 .017740885 .03515625 .020019532 .047851564 .024902344 C .060546876 .030110678 .07014974 .036946615 .076660159 .045410158 C .08317057 .0538737 .08821615 .06575521 .091796878 .08105469 C .092447917 .084635417 .09277344 .10123698 .09277344 .13085938 L .09277344 .5498047 C .09277344 .5833333 .09098307 .6041667 .087402347 .6123047 C .08382162 .62076827 .0764974 .62809249 .06542969 .63427737 C .05436198 .6407878 .03955078 .64404299 .020996094 .64404299 L 0 .64404299 L 0 .6621094 L .2705078 .6621094 L .45654298 .22558594 Z "/>
</symbol>
<symbol id="font_3_52">
<path d="M .21289063 .48388673 C .25260417 .48388673 .28955079 .4736328 .32373048 .453125 C .35791017 .4326172 .38378907 .40348307 .4013672 .36572267 C .41927085 .32796226 .42822267 .2866211 .42822267 .24169922 C .42822267 .17692058 .41178385 .12272135 .37890626 .07910156 C .33919273 .026367188 .28434245 0 .21435547 0 C .14567058 0 .09277344 .024088541 .055664064 .072265628 C .018554688 .12044271 0 .17626953 0 .2397461 C 0 .30517579 .018880209 .36214195 .056640626 .41064454 C .09472656 .45947267 .14680989 .48388673 .21289063 .48388673 M .21484375 .44921876 C .19824219 .44921876 .18391927 .4428711 .171875 .43017579 C .16015625 .417806 .15234375 .3930664 .1484375 .35595704 C .14485677 .3191732 .1430664 .26790367 .1430664 .20214844 C .1430664 .1673177 .14534505 .13476563 .14990235 .10449219 C .15348308 .08138021 .16113281 .063802089 .17285156 .051757814 C .18457031 .039713544 .19791667 .033691408 .21289063 .033691408 C .22753906 .033691408 .2397461 .037760419 .24951172 .045898439 C .26220704 .056966146 .27067057 .07242838 .27490235 .092285159 C .28141276 .12320963 .28466798 .18570964 .28466798 .27978517 C .28466798 .3351237 .28157554 .37304688 .27539063 .3935547 C .26920573 .41438804 .26009117 .42952476 .24804688 .43896485 C .23958333 .44580079 .22851563 .44921876 .21484375 .44921876 Z "/>
</symbol>
<symbol id="font_3_47">
<path d="M .43896485 .67578127 L .43896485 .15039063 C .43896485 .11490885 .4399414 .09391276 .44189454 .087402347 C .4444987 .076660159 .4493815 .0686849 .45654298 .06347656 C .46402995 .05826823 .47688804 .05501302 .4951172 .053710939 L .4951172 .037597658 L .3022461 0 L .3022461 .072265628 C .27913413 .044270833 .25846354 .025227866 .24023438 .015136719 C .22233074 .0050455729 .20198567 0 .17919922 0 C .12093099 0 .07486979 .026041666 .041015626 .078125 C .013671875 .12044271 0 .17236328 0 .23388672 C 0 .28304038 .008463542 .3269857 .025390625 .36572267 C .042317708 .40478517 .06542969 .43424479 .09472656 .45410157 C .12434896 .47395835 .15608724 .48388673 .1899414 .48388673 C .2117513 .48388673 .2311198 .47965495 .24804688 .4711914 C .26497398 .46272788 .28304038 .44791667 .3022461 .4267578 L .3022461 .5644531 C .3022461 .5992839 .30078126 .62027999 .29785157 .6274414 C .2939453 .63688156 .28808595 .6438802 .28027345 .6484375 C .27246095 .6529948 .2578125 .65527346 .23632813 .65527346 L .23632813 .67578127 L .43896485 .67578127 M .3022461 .36621095 C .27815757 .4124349 .24869792 .43554688 .21386719 .43554688 C .20182292 .43554688 .19189453 .43229167 .18408203 .42578126 C .17203777 .4156901 .16210938 .39794923 .15429688 .3725586 C .14680989 .34716798 .1430664 .30826823 .1430664 .25585938 C .1430664 .19824219 .14729817 .15559896 .15576172 .12792969 C .16422527 .100260417 .17578125 .08024088 .19042969 .067871097 C .19791667 .0616862 .20817058 .05859375 .2211914 .05859375 C .24983724 .05859375 .27685548 .08105469 .3022461 .12597656 L .3022461 .36621095 Z "/>
</symbol>
<symbol id="font_3_48">
<path d="M .38183595 .25830079 L .13134766 .25830079 C .13427735 .1977539 .15039063 .14990235 .1796875 .114746097 C .20214844 .08772787 .22916667 .07421875 .2607422 .07421875 C .28027345 .07421875 .2980143 .079589847 .31396485 .09033203 C .32991538 .10139974 .34700523 .12109375 .36523438 .14941406 L .38183595 .13867188 C .35709635 .08821615 .3297526 .052408857 .2998047 .03125 C .26985679 .010416667 .2351888 0 .19580078 0 C .12809246 0 .076822917 .026041666 .041992189 .078125 C .0139973959 .12011719 0 .17220052 0 .234375 C 0 .31054688 .020507813 .37109376 .061523439 .41601563 C .102864589 .46126304 .15120442 .48388673 .20654297 .48388673 C .25276695 .48388673 .292806 .46484376 .32666017 .4267578 C .36083985 .3889974 .37923179 .33284507 .38183595 .25830079 M .26171876 .29101563 C .26171876 .34342448 .25878907 .37939454 .2529297 .39892579 C .24739583 .41845704 .23860677 .43326823 .2265625 .44335938 C .21972656 .44921876 .21061199 .45214845 .19921875 .45214845 C .18229167 .45214845 .16845703 .44384767 .15771485 .4272461 C .13850911 .39827476 .12890625 .3585612 .12890625 .30810548 L .12890625 .29101563 L .26171876 .29101563 Z "/>
</symbol>
<symbol id="font_3_4f">
<path d="M .19140625 .6621094 L .19140625 .09472656 C .19140625 .0625 .19514974 .041829427 .20263672 .032714845 C .2101237 .023925782 .22477214 .018880209 .24658203 .017578125 L .24658203 0 L 0 0 L 0 .017578125 C .020182291 .018229166 .03515625 .024088541 .044921876 .03515625 C .051432294 .04264323 .0546875 .0625 .0546875 .09472656 L .0546875 .5673828 C .0546875 .5992839 .05094401 .6196289 .04345703 .62841799 C .03597005 .63753256 .021484375 .6427409 0 .64404299 L 0 .6621094 L .19140625 .6621094 Z "/>
</symbol>
<use xlink:href="#font_3_30" transform="matrix(27.638888,0,0,-27.638888,171.06168,45.783327)" fill="#ffffff"/>
<use xlink:href="#font_3_52" transform="matrix(27.638888,0,0,-27.638888,197.75704,46.1612)" fill="#ffffff"/>
<use xlink:href="#font_3_47" transform="matrix(27.638888,0,0,-27.638888,211.71343,46.1612)" fill="#ffffff"/>
<use xlink:href="#font_3_48" transform="matrix(27.638888,0,0,-27.638888,227.13005,46.1612)" fill="#ffffff"/>
<use xlink:href="#font_3_4f" transform="matrix(27.638888,0,0,-27.638888,239.00536,45.783327)" fill="#ffffff"/>
</g>
</g>
<clipPath id="cp6">
<path transform="matrix(2.7777777,0,0,2.7777777,-629.49166,-345.88334)" d="M 0 0 L 733.25 0 L 733.25 511.6 L 0 511.6 Z " fill-rule="evenodd"/>
</clipPath>
<g clip-path="url(#cp6)">
<clipPath id="cp7">
<path transform="matrix(2.7777777,0,0,2.7777777,-629.49166,-345.88334)" d="M 326.6 0 L 376.5 0 L 376.5 511.6 L 326.6 511.6 Z " fill-rule="evenodd"/>
</clipPath>
<g clip-path="url(#cp7)">
<symbol id="font_3_36">
<path d="M .41796876 .6928711 L .42333985 .47216798 L .4033203 .47216798 C .39388023 .52750656 .37060548 .5719401 .3334961 .60546877 C .29671226 .63932296 .25683595 .65625 .21386719 .65625 C .18066406 .65625 .15429688 .64729818 .13476563 .62939456 C .1155599 .6118164 .10595703 .5914714 .10595703 .5683594 C .10595703 .55371096 .109375 .5406901 .11621094 .5292969 C .12565105 .5139974 .14078777 .4988607 .1616211 .48388673 C .17692058 .47314454 .21223958 .45410157 .26757813 .4267578 C .3450521 .38867188 .3972982 .3527018 .4243164 .31884767 C .45100913 .2849935 .46435548 .24625652 .46435548 .20263672 C .46435548 .14729817 .44270835 .099609378 .39941407 .059570314 C .3564453 .019856772 .3017578 0 .23535156 0 C .21451824 0 .19482422 .0021158856 .17626953 .0063476564 C .15771485 .010579427 .13444011 .018554688 .10644531 .030273438 C .09082031 .036783857 .07796224 .040039064 .067871097 .040039064 C .05940755 .040039064 .05045573 .036783857 .041015626 .030273438 C .03157552 .023763022 .023925782 .013834636 .018066407 .00048828127 L 0 .00048828127 L 0 .25048829 L .018066407 .25048829 C .032389326 .18017578 .059895833 .12646485 .10058594 .08935547 C .14160156 .052571615 .18570964 .034179689 .23291016 .034179689 C .2693685 .034179689 .29833985 .044108076 .31982423 .063964847 C .34163413 .08382162 .35253907 .106933597 .35253907 .13330078 C .35253907 .14892578 .34830729 .1640625 .33984376 .17871094 C .33170573 .19335938 .3191732 .20719402 .3022461 .22021485 C .285319 .2335612 .2553711 .2508138 .21240235 .27197267 C .15218099 .30159507 .10888672 .3268229 .08251953 .34765626 C .056152345 .3684896 .035807294 .3917643 .021484375 .41748048 C .007486979 .44319663 .00048828127 .47151695 .00048828127 .5024414 C .00048828127 .5551758 .019856772 .60009768 .05859375 .63720706 C .09733073 .6743164 .14615886 .6928711 .20507813 .6928711 C .2265625 .6928711 .24739583 .6902669 .26757813 .6850586 C .2828776 .68115237 .30143229 .6738281 .3232422 .66308596 C .3453776 .65266928 .36083985 .64746096 .3696289 .64746096 C .37809245 .64746096 .38476563 .6500651 .38964845 .65527346 C .39453126 .66048178 .39908854 .67301437 .4033203 .6928711 L .41796876 .6928711 Z "/>
</symbol>
<symbol id="font_3_46">
<path d="M .36816407 .13134766 L .38330079 .119628909 C .3618164 .07926432 .33496095 .049153646 .30273438 .029296875 C .27083335 .009765625 .2368164 0 .2006836 0 C .1398112 0 .091145839 .022949219 .0546875 .068847659 C .018229166 .114746097 0 .16992188 0 .234375 C 0 .29654948 .016601563 .35123698 .049804689 .3984375 C .08984375 .45540367 .14501953 .48388673 .21533203 .48388673 C .26253257 .48388673 .29996745 .47200523 .32763673 .4482422 C .3556315 .42447917 .3696289 .39794923 .3696289 .36865235 C .3696289 .35009767 .36393229 .33528648 .35253907 .32421876 C .34147135 .31315104 .3268229 .3076172 .30859376 .3076172 C .28938804 .3076172 .2734375 .31396485 .2607422 .32666017 C .24837239 .33935548 .24072266 .36197917 .23779297 .39453126 C .23583985 .41503907 .2311198 .42936198 .22363281 .4375 C .21614583 .44563804 .20735677 .44970704 .19726563 .44970704 C .18164063 .44970704 .16829427 .44140626 .15722656 .4248047 C .14029949 .3997396 .13183594 .36132813 .13183594 .3095703 C .13183594 .26660157 .13867188 .22542317 .15234375 .18603516 C .16601563 .14697266 .18473308 .11783854 .2084961 .09863281 C .22639974 .084635417 .2475586 .07763672 .27197267 .07763672 C .2879232 .07763672 .3030599 .08138021 .3173828 .08886719 C .33170573 .096354167 .3486328 .11051432 .36816407 .13134766 Z "/>
</symbol>
<symbol id="font_3_55">
<path d="M .18652344 .45654298 L .18652344 .35302735 C .21679688 .40022788 .24332683 .43147788 .26611329 .44677735 C .28889976 .46240235 .3108724 .47021485 .33203126 .47021485 C .3502604 .47021485 .3647461 .46451823 .37548829 .453125 C .386556 .44205729 .39208985 .42626954 .39208985 .40576173 C .39208985 .3839518 .38671876 .36702476 .37597657 .35498048 C .3655599 .3429362 .3528646 .33691407 .33789063 .33691407 C .32063804 .33691407 .30566407 .3424479 .29296876 .35351563 C .28027345 .36458335 .27278648 .37076823 .2705078 .3720703 C .2672526 .37402345 .26350913 .375 .25927735 .375 C .24983724 .375 .24088542 .37141929 .23242188 .3642578 C .21907552 .3531901 .20898438 .33740235 .20214844 .31689454 C .19173177 .285319 .18652344 .25048829 .18652344 .21240235 L .18652344 .107421878 L .18701172 .080078128 C .18701172 .061523439 .18815105 .049641927 .19042969 .044433595 C .19433594 .03564453 .20003255 .029134116 .20751953 .024902344 C .21533203 .020996094 .22835286 .018554688 .24658203 .017578125 L .24658203 0 L 0 0 L 0 .017578125 C .019856772 .019205729 .033203126 .024576823 .040039064 .033691408 C .04720052 .04313151 .05078125 .067708339 .05078125 .107421878 L .05078125 .35986329 C .05078125 .38590495 .049479169 .4025065 .046875 .40966798 C .043619794 .41878257 .03889974 .42545573 .032714845 .4296875 C .026529948 .43391929 .015625 .43684898 0 .43847657 L 0 .45654298 L .18652344 .45654298 Z "/>
</symbol>
<use xlink:href="#font_3_36" transform="matrix(27.638888,0,0,-27.638888,315.27223,46.215185)" fill="#ffffff"/>
<use xlink:href="#font_3_46" transform="matrix(27.638888,0,0,-27.638888,330.31095,46.1612)" fill="#ffffff"/>
<use xlink:href="#font_3_52" transform="matrix(27.638888,0,0,-27.638888,342.6181,46.1612)" fill="#ffffff"/>
<use xlink:href="#font_3_55" transform="matrix(27.638888,0,0,-27.638888,356.52055,45.783327)" fill="#ffffff"/>
<use xlink:href="#font_3_48" transform="matrix(27.638888,0,0,-27.638888,368.93568,46.1612)" fill="#ffffff"/>
</g>
</g>
<clipPath id="cp8">
<path transform="matrix(2.7777777,0,0,2.7777777,-629.49166,-345.88334)" d="M 0 0 L 733.25 0 L 733.25 511.6 L 0 511.6 Z " fill-rule="evenodd"/>
</clipPath>
<g clip-path="url(#cp8)">
<clipPath id="cp9">
<path transform="matrix(2.7777777,0,0,2.7777777,-629.49166,-345.88334)" d="M 226.8 0 L 276.7 0 L 276.7 511.6 L 226.8 511.6 Z " fill-rule="evenodd"/>
</clipPath>
<g clip-path="url(#cp9)">
<symbol id="font_a_14">
<path d="M .26367188 0 L .17578125 0 L .17578125 .5600586 C .15462239 .5398763 .12679036 .51969406 .092285159 .49951173 C .05810547 .47932945 .02734375 .46419273 0 .45410157 L 0 .5390625 C .049153646 .5621745 .0921224 .59016928 .12890625 .6230469 C .16569011 .6559245 .19173177 .6878255 .20703125 .71875 L .26367188 .71875 L .26367188 0 Z "/>
</symbol>
<use xlink:href="#font_a_14" transform="matrix(27.638888,0,0,-27.638888,65.04564,108.69998)"/>
</g>
</g>
<clipPath id="cp11">
<path transform="matrix(2.7777777,0,0,2.7777777,-629.49166,-345.88334)" d="M 0 0 L 733.25 0 L 733.25 511.6 L 0 511.6 Z " fill-rule="evenodd"/>
</clipPath>
<g clip-path="url(#cp11)">
<clipPath id="cp12">
<path transform="matrix(2.7777777,0,0,2.7777777,-629.49166,-345.88334)" d="M 276.7 0 L 326.6 0 L 326.6 511.6 L 276.7 511.6 Z " fill-rule="evenodd"/>
</clipPath>
<g clip-path="url(#cp12)">
<symbol id="font_a_48">
<path d="M .38427735 .17871094 L .47509767 .16748047 C .46077476 .11442057 .43424479 .07324219 .3955078 .043945314 C .35677085 .0146484379 .30729167 0 .24707031 0 C .17122396 0 .1110026 .02327474 .06640625 .06982422 C .022135416 .11669922 0 .18229167 0 .26660157 C 0 .35384117 .022460938 .42154948 .06738281 .46972657 C .11230469 .5179036 .17057292 .5419922 .2421875 .5419922 C .31152345 .5419922 .36816407 .5183919 .41210938 .4711914 C .4560547 .42399089 .47802735 .35758464 .47802735 .27197267 C .47802735 .2667643 .4778646 .2589518 .47753907 .24853516 L .09082031 .24853516 C .09407552 .19156902 .110188808 .14794922 .13916016 .11767578 C .16813152 .087402347 .20426433 .072265628 .2475586 .072265628 C .27978517 .072265628 .30729167 .080729167 .33007813 .09765625 C .3528646 .114583339 .370931 .14160156 .38427735 .17871094 M .095703128 .32080079 L .3852539 .32080079 C .38134767 .36442057 .37027995 .3971354 .35205079 .4189453 C .324056 .45279948 .2877604 .46972657 .24316406 .46972657 C .20279949 .46972657 .16878255 .45621745 .14111328 .42919923 C .11376953 .402181 .09863281 .3660482 .095703128 .32080079 Z "/>
</symbol>
<symbol id="font_a_50">
<path d="M 0 0 L 0 .5185547 L .07861328 .5185547 L .07861328 .44580079 C .09488932 .4711914 .11653646 .49153648 .14355469 .50683596 C .17057292 .52246096 .20133464 .53027346 .23583985 .53027346 C .2742513 .53027346 .30566407 .52229818 .33007813 .50634768 C .35481773 .49039714 .37223307 .46809898 .38232423 .43945313 C .42333985 .5 .47672526 .53027346 .54248049 .53027346 C .5939128 .53027346 .63346359 .5159505 .6611328 .4873047 C .68880209 .45898438 .7026367 .4152018 .7026367 .35595704 L .7026367 0 L .6152344 0 L .6152344 .32666017 C .6152344 .3618164 .6123047 .38704429 .6064453 .40234376 C .60091146 .41796876 .59065756 .4305013 .5756836 .4399414 C .56070968 .4493815 .54313156 .45410157 .5229492 .45410157 C .48649089 .45410157 .45621745 .44189454 .4321289 .41748048 C .40804038 .39339195 .3959961 .35465495 .3959961 .30126954 L .3959961 0 L .30810548 0 L .30810548 .33691407 C .30810548 .37597657 .300944 .40527345 .2866211 .4248047 C .2722982 .44433595 .24886067 .45410157 .2163086 .45410157 C .19156902 .45410157 .1686198 .44759117 .14746094 .4345703 C .12662761 .42154948 .11149088 .4025065 .10205078 .3774414 C .09261068 .3523763 .087890628 .3162435 .087890628 .26904298 L .087890628 0 L 0 0 Z "/>
</symbol>
<symbol id="font_a_58">
<path d="M .34179688 .01171875 L .34179688 .087890628 C .30143229 .029296875 .24658203 0 .1772461 0 C .14664714 0 .118001308 .005859375 .091308597 .017578125 C .064941409 .029296875 .045247396 .043945314 .032226564 .061523439 C .01953125 .079427089 .010579427 .10123698 .0053710939 .12695313 C .0017903646 .14420574 0 .17154949 0 .20898438 L 0 .53027346 L .087890628 .53027346 L .087890628 .24267578 C .087890628 .19677735 .08968099 .16585286 .09326172 .14990235 C .09879557 .12679036 .11051432 .108561199 .12841797 .095214847 C .14632161 .08219401 .16845703 .075683597 .19482422 .075683597 C .2211914 .075683597 .24593099 .08235677 .26904298 .095703128 C .29215495 .109375 .308431 .12776692 .3178711 .1508789 C .32763673 .1743164 .33251954 .20817058 .33251954 .2524414 L .33251954 .53027346 L .42041017 .53027346 L .42041017 .01171875 L .34179688 .01171875 Z "/>
</symbol>
<symbol id="font_a_15">
<path d="M .47379557 .084472659 L .47379557 0 L .00065104107 0 C -.00000000062088176 .021158854 .003417968 .041503908 .010904947 .061035158 C .022949219 .09326172 .04215495 .125 .06852213 .15625 C .095214847 .1875 .1336263 .22363281 .18375652 .26464845 C .261556 .32845054 .3141276 .37890626 .34147135 .41601563 C .3688151 .45345054 .38248698 .48876954 .38248698 .52197268 C .38248698 .5568034 .36995445 .5861003 .3448893 .6098633 C .32014976 .63395187 .2877604 .6459961 .24772136 .6459961 C .20540364 .6459961 .17154949 .6333008 .14615886 .60791018 C .12076823 .58251956 .107910159 .5473633 .10758463 .5024414 L .017252604 .51171877 C .0234375 .57910159 .04671224 .6303711 .08707682 .66552737 C .1274414 .7010091 .18164063 .71875 .24967449 .71875 C .31835938 .71875 .37272135 .69970706 .4127604 .6616211 C .45279948 .62353518 .472819 .57633468 .472819 .52001956 C .472819 .4913737 .46695964 .46321617 .45524089 .43554688 C .44352214 .4078776 .42399089 .3787435 .39664714 .34814454 C .3696289 .31754557 .32454429 .27555339 .26139323 .22216797 C .20865886 .17789714 .17480469 .14778646 .15983074 .13183594 C .14485677 .11621094 .13248699 .10042318 .12272135 .084472659 L .47379557 .084472659 Z "/>
</symbol>
<use xlink:href="#font_a_48" transform="matrix(27.638888,0,0,-27.638888,174.71492,109.02387)"/>
<use xlink:href="#font_a_50" transform="matrix(27.638888,0,0,-27.638888,190.94129,108.69998)"/>
<use xlink:href="#font_a_58" transform="matrix(27.638888,0,0,-27.638888,214.08176,109.02387)"/>
<use xlink:href="#font_a_15" transform="matrix(27.638888,0,0,-27.638888,228.5492,108.69998)"/>
</g>
</g>
<clipPath id="cp13">
<path transform="matrix(2.7777777,0,0,2.7777777,-629.49166,-345.88334)" d="M 0 0 L 733.25 0 L 733.25 511.6 L 0 511.6 Z " fill-rule="evenodd"/>
</clipPath>
<g clip-path="url(#cp13)">
<clipPath id="cp14">
<path transform="matrix(2.7777777,0,0,2.7777777,-629.49166,-345.88334)" d="M 226.8 0 L 276.7 0 L 276.7 511.6 L 226.8 511.6 Z " fill-rule="evenodd"/>
</clipPath>
<g clip-path="url(#cp14)">
<use xlink:href="#font_a_15" transform="matrix(27.638888,0,0,-27.638888,62.854864,164.39441)"/>
</g>
</g>
<clipPath id="cp15">
<path transform="matrix(2.7777777,0,0,2.7777777,-629.49166,-345.88334)" d="M 0 0 L 733.25 0 L 733.25 511.6 L 0 511.6 Z " fill-rule="evenodd"/>
</clipPath>
<g clip-path="url(#cp15)">
<clipPath id="cp16">
<path transform="matrix(2.7777777,0,0,2.7777777,-629.49166,-345.88334)" d="M 226.8 0 L 276.7 0 L 276.7 511.6 L 226.8 511.6 Z " fill-rule="evenodd"/>
</clipPath>
<g clip-path="url(#cp16)">
<symbol id="font_a_16">
<path d="M 0 .20166016 L .087890628 .2133789 C .09798177 .16357422 .11507162 .12760417 .13916016 .10546875 C .16357422 .08365885 .19319661 .072753909 .22802735 .072753909 C .2693685 .072753909 .30419923 .08707682 .33251954 .115722659 C .36116538 .14436849 .37548829 .17985027 .37548829 .22216797 C .37548829 .26253257 .3623047 .2957357 .3359375 .32177735 C .3095703 .34814454 .27604167 .36132813 .23535156 .36132813 C .21875 .36132813 .19807942 .3580729 .17333985 .3515625 L .18310547 .42871095 C .18896485 .4280599 .19368489 .42773438 .19726563 .42773438 C .23470052 .42773438 .26839195 .4375 .29833985 .45703126 C .32828776 .4765625 .34326173 .50667318 .34326173 .5473633 C .34326173 .57958987 .33235679 .60628256 .31054688 .6274414 C .28873698 .6486003 .26057945 .6591797 .22607422 .6591797 C .19189453 .6591797 .16341146 .6484375 .140625 .6269531 C .11783854 .60546877 .1031901 .5732422 .09667969 .53027346 L .0087890629 .54589846 C .01953125 .6048177 .043945314 .6503906 .08203125 .6826172 C .12011719 .71516928 .16748047 .7314453 .2241211 .7314453 C .2631836 .7314453 .29915367 .72298178 .33203126 .7060547 C .36490885 .6894531 .38997398 .6666667 .40722657 .6376953 C .4248047 .60872396 .43359376 .5779622 .43359376 .54541018 C .43359376 .51448568 .42529298 .48632813 .4086914 .4609375 C .39208985 .43554688 .36751304 .4153646 .33496095 .40039063 C .37727867 .390625 .41015626 .37027995 .43359376 .33935548 C .45703126 .3087565 .46875 .27034507 .46875 .2241211 C .46875 .1616211 .44596354 .108561199 .40039063 .064941409 C .35481773 .021647135 .29720054 0 .22753906 0 C .16471355 0 .112467449 .018717448 .07080078 .056152345 C .029459635 .09358724 .005859375 .14208985 0 .20166016 Z "/>
</symbol>
<use xlink:href="#font_a_16" transform="matrix(27.638888,0,0,-27.638888,63.19675,220.30088)"/>
</g>
</g>
<clipPath id="cp17">
<path transform="matrix(2.7777777,0,0,2.7777777,-629.49166,-345.88334)" d="M 0 0 L 733.25 0 L 733.25 511.6 L 0 511.6 Z " fill-rule="evenodd"/>
</clipPath>
<g clip-path="url(#cp17)">
<clipPath id="cp18">
<path transform="matrix(2.7777777,0,0,2.7777777,-629.49166,-345.88334)" d="M 226.8 0 L 276.7 0 L 276.7 511.6 L 226.8 511.6 Z " fill-rule="evenodd"/>
</clipPath>
<g clip-path="url(#cp18)">
<symbol id="font_a_17">
<path d="M .31054688 0 L .31054688 .17138672 L 0 .17138672 L 0 .25195313 L .32666017 .7158203 L .3984375 .7158203 L .3984375 .25195313 L .4951172 .25195313 L .4951172 .17138672 L .3984375 .17138672 L .3984375 0 L .31054688 0 M .31054688 .25195313 L .31054688 .57470706 L .08642578 .25195313 L .31054688 .25195313 Z "/>
</symbol>
<use xlink:href="#font_a_17" transform="matrix(27.638888,0,0,-27.638888,62.387018,275.50553)"/>
</g>
</g>
<clipPath id="cp19">
<path transform="matrix(2.7777777,0,0,2.7777777,-629.49166,-345.88334)" d="M 0 0 L 733.25 0 L 733.25 511.6 L 0 511.6 Z " fill-rule="evenodd"/>
</clipPath>
<g clip-path="url(#cp19)">
<clipPath id="cp20">
<path transform="matrix(2.7777777,0,0,2.7777777,-629.49166,-345.88334)" d="M 226.8 0 L 276.7 0 L 276.7 511.6 L 226.8 511.6 Z " fill-rule="evenodd"/>
</clipPath>
<g clip-path="url(#cp20)">
<symbol id="font_a_18">
<path d="M 0 .19970703 L .092285159 .20751953 C .099121097 .16259766 .11490885 .12874349 .13964844 .10595703 C .16471355 .083496097 .19482422 .072265628 .22998047 .072265628 C .2722982 .072265628 .30810548 .08821615 .33740235 .12011719 C .36669923 .15201824 .38134767 .19433594 .38134767 .24707031 C .38134767 .29720054 .3671875 .3367513 .3388672 .36572267 C .3108724 .394694 .27408854 .4091797 .22851563 .4091797 C .20019531 .4091797 .17464192 .40266929 .15185547 .38964845 C .12906902 .37695313 .11116537 .36035157 .09814453 .33984376 L .015625 .35058595 L .08496094 .7182617 L .44091798 .7182617 L .44091798 .63427737 L .15527344 .63427737 L .11669922 .44189454 C .15966797 .47184245 .20475261 .4868164 .25195313 .4868164 C .31445313 .4868164 .3671875 .46516929 .41015626 .421875 C .453125 .37858073 .47460938 .32291667 .47460938 .2548828 C .47460938 .19010417 .45572917 .13411458 .41796876 .08691406 C .3720703 .028971354 .30940757 0 .22998047 0 C .1648763 0 .11165365 .018229166 .0703125 .0546875 C .029296875 .091145839 .005859375 .13948567 0 .19970703 Z "/>
</symbol>
<use xlink:href="#font_a_18" transform="matrix(27.638888,0,0,-27.638888,63.183256,331.53739)"/>
</g>
</g>
<clipPath id="cp21">
<path transform="matrix(2.7777777,0,0,2.7777777,-629.49166,-345.88334)" d="M 0 0 L 733.25 0 L 733.25 511.6 L 0 511.6 Z " fill-rule="evenodd"/>
</clipPath>
<g clip-path="url(#cp21)">
<clipPath id="cp22">
<path transform="matrix(2.7777777,0,0,2.7777777,-629.49166,-345.88334)" d="M 226.8 0 L 276.7 0 L 276.7 511.6 L 226.8 511.6 Z " fill-rule="evenodd"/>
</clipPath>
<g clip-path="url(#cp22)">
<symbol id="font_a_19">
<path d="M .45996095 .5527344 L .3725586 .54589846 C .3647461 .5804036 .35367839 .60546877 .33935548 .62109377 C .31559245 .6461589 .28629557 .6586914 .25146485 .6586914 C .22347005 .6586914 .19889324 .6508789 .17773438 .6352539 C .15006511 .6150716 .1282552 .585612 .11230469 .546875 C .096354167 .508138 .08805338 .45296226 .087402347 .38134767 C .108561199 .41357423 .13444011 .4375 .16503906 .453125 C .19563802 .46875 .22770183 .4765625 .26123048 .4765625 C .31982423 .4765625 .3696289 .45491538 .41064454 .4116211 C .4519857 .36865235 .47265626 .31298829 .47265626 .2446289 C .47265626 .19970703 .46289063 .15787761 .44335938 .119140628 C .42415367 .080729167 .3976237 .05126953 .36376954 .030761719 C .32991538 .010253906 .2915039 0 .24853516 0 C .17529297 0 .1155599 .026855469 .06933594 .080566409 C .023111979 .13460286 0 .22347005 0 .34716798 C 0 .4855143 .025553385 .5861003 .076660159 .6489258 C .12125651 .7036133 .18131511 .73095706 .25683595 .73095706 C .31315104 .73095706 .35921226 .71516928 .39501954 .68359377 C .43115235 .65201827 .45279948 .60839846 .45996095 .5527344 M .10107422 .24414063 C .10107422 .21386719 .107421878 .18489583 .12011719 .15722656 C .13313802 .1295573 .15120442 .10839844 .1743164 .09375 C .19742839 .079427089 .22167969 .072265628 .24707031 .072265628 C .2841797 .072265628 .31608073 .087239589 .34277345 .1171875 C .36946617 .14713542 .3828125 .18782552 .3828125 .23925781 C .3828125 .28873698 .3696289 .32763673 .34326173 .35595704 C .31689454 .38460288 .2836914 .39892579 .24365235 .39892579 C .2039388 .39892579 .17024739 .38460288 .14257813 .35595704 C .11490885 .32763673 .10107422 .2903646 .10107422 .24414063 Z "/>
</symbol>
<use xlink:href="#font_a_19" transform="matrix(27.638888,0,0,-27.638888,63.07529,387.09294)"/>
</g>
</g>
<clipPath id="cp23">
<path transform="matrix(2.7777777,0,0,2.7777777,-629.49166,-345.88334)" d="M 0 0 L 733.25 0 L 733.25 511.6 L 0 511.6 Z " fill-rule="evenodd"/>
</clipPath>
<g clip-path="url(#cp23)">
<clipPath id="cp24">
<path transform="matrix(2.7777777,0,0,2.7777777,-629.49166,-345.88334)" d="M 226.8 0 L 276.7 0 L 276.7 511.6 L 226.8 511.6 Z " fill-rule="evenodd"/>
</clipPath>
<g clip-path="url(#cp24)">
<symbol id="font_a_1a">
<path d="M 0 .6220703 L 0 .70654299 L .4633789 .70654299 L .4633789 .6381836 C .417806 .58968099 .3725586 .52522787 .32763673 .44482423 C .28304038 .36442057 .24853516 .28173829 .2241211 .19677735 C .20654297 .13688152 .1953125 .07128906 .19042969 0 L .100097659 0 C .10107422 .056315107 .11214193 .12434896 .13330078 .20410156 C .15445964 .28385417 .18473308 .3606771 .2241211 .4345703 C .26383464 .50878909 .3059896 .57128909 .35058595 .6220703 L 0 .6220703 Z "/>
</symbol>
<use xlink:href="#font_a_1a" transform="matrix(27.638888,0,0,-27.638888,63.3452,442.44993)"/>
</g>
</g>
<clipPath id="cp25">
<path transform="matrix(2.7777777,0,0,2.7777777,-629.49166,-345.88334)" d="M 0 0 L 733.25 0 L 733.25 511.6 L 0 511.6 Z " fill-rule="evenodd"/>
</clipPath>
<g clip-path="url(#cp25)">
<clipPath id="cp26">
<path transform="matrix(2.7777777,0,0,2.7777777,-629.49166,-345.88334)" d="M 226.8 0 L 276.7 0 L 276.7 511.6 L 226.8 511.6 Z " fill-rule="evenodd"/>
</clipPath>
<g clip-path="url(#cp26)">
<symbol id="font_a_1b">
<path d="M .13623047 .40039063 C .09977213 .41373698 .072753909 .43277995 .05517578 .45751954 C .037597658 .48225913 .028808594 .51188156 .028808594 .5463867 C .028808594 .59847006 .047526044 .6422526 .08496094 .6777344 C .122395839 .7132161 .17220052 .73095706 .234375 .73095706 C .296875 .73095706 .34716798 .71272787 .3852539 .67626956 C .42333985 .6401367 .4423828 .5960286 .4423828 .5439453 C .4423828 .5107422 .43359376 .48177085 .41601563 .45703126 C .39876304 .4326172 .37239585 .41373698 .33691407 .40039063 C .38085938 .38606773 .41422526 .36295573 .43701173 .3310547 C .4601237 .29915367 .4716797 .26106773 .4716797 .21679688 C .4716797 .15559896 .45003257 .104166667 .40673829 .0625 C .363444 .020833334 .30647788 0 .23583985 0 C .16520183 0 .10823568 .020833334 .064941409 .0625 C .021647135 .10449219 0 .15673828 0 .21923828 C 0 .26578776 .01171875 .3046875 .03515625 .3359375 C .05891927 .36751304 .09261068 .3889974 .13623047 .40039063 M .118652347 .5493164 C .118652347 .5154622 .1295573 .48779298 .15136719 .4663086 C .17317708 .44482423 .20149739 .43408204 .23632813 .43408204 C .27018229 .43408204 .29785157 .44466148 .31933595 .4658203 C .34114585 .4873047 .35205079 .5135091 .35205079 .5444336 C .35205079 .57666018 .3408203 .6036784 .31835938 .6254883 C .29622398 .6476237 .2685547 .6586914 .23535156 .6586914 C .20182292 .6586914 .17399089 .6479492 .15185547 .62646487 C .12972005 .60498049 .118652347 .57926437 .118652347 .5493164 M .09033203 .21875 C .09033203 .19368489 .096191409 .1694336 .107910159 .1459961 C .11995443 .122558597 .13769531 .10432943 .16113281 .091308597 C .18457031 .07861328 .20979817 .072265628 .2368164 .072265628 C .2788086 .072265628 .31347657 .08577474 .3408203 .11279297 C .36816407 .1398112 .38183595 .17415364 .38183595 .21582031 C .38183595 .25813804 .36767579 .2931315 .33935548 .32080079 C .3113607 .34847007 .27620445 .3623047 .23388672 .3623047 C .19254558 .3623047 .15820313 .3486328 .13085938 .32128907 C .10384115 .2939453 .09033203 .25976563 .09033203 .21875 Z "/>
</symbol>
<use xlink:href="#font_a_1b" transform="matrix(27.638888,0,0,-27.638888,63.156267,498.34288)"/>
</g>
</g>
<clipPath id="cp27">
<path transform="matrix(2.7777777,0,0,2.7777777,-629.49166,-345.88334)" d="M 0 0 L 733.25 0 L 733.25 511.6 L 0 511.6 Z " fill-rule="evenodd"/>
</clipPath>
<g clip-path="url(#cp27)">
<clipPath id="cp28">
<path transform="matrix(2.7777777,0,0,2.7777777,-629.49166,-345.88334)" d="M 226.8 0 L 276.7 0 L 276.7 511.6 L 226.8 511.6 Z " fill-rule="evenodd"/>
</clipPath>
<g clip-path="url(#cp28)">
<symbol id="font_a_1c">
<path d="M .013183594 .17773438 L .09765625 .18554688 C .10481771 .14583333 .118489589 .11702474 .13867188 .099121097 C .15885417 .081217449 .18473308 .072265628 .2163086 .072265628 C .24332683 .072265628 .2669271 .07845052 .28710938 .09082031 C .3076172 .1031901 .3243815 .119628909 .33740235 .14013672 C .3504232 .16097005 .36132813 .18896485 .3701172 .2241211 C .37890626 .25927735 .38330079 .29508464 .38330079 .33154298 C .38330079 .33544923 .38313804 .3413086 .3828125 .3491211 C .36523438 .3211263 .34114585 .29833985 .31054688 .28076173 C .28027345 .26350913 .24739583 .2548828 .21191406 .2548828 C .15266927 .2548828 .10253906 .2763672 .061523439 .31933595 C .020507813 .3623047 0 .4189453 0 .4892578 C 0 .56184896 .021321616 .62027999 .063964847 .6645508 C .106933597 .7088216 .16064453 .73095706 .22509766 .73095706 C .27164714 .73095706 .3141276 .7184245 .35253907 .6933594 C .39127604 .66829428 .4205729 .632487 .4404297 .5859375 C .46061198 .53971359 .47070313 .47265626 .47070313 .38476563 C .47070313 .29329429 .46077476 .22037761 .44091798 .16601563 C .4210612 .111979167 .3914388 .07080078 .35205079 .04248047 C .31298829 .014160156 .26708985 0 .21435547 0 C .15836589 0 .11263021 .015462239 .07714844 .04638672 C .041666669 .07763672 .020345053 .12141927 .013183594 .17773438 M .37304688 .49365235 C .37304688 .5441081 .35953776 .58414718 .33251954 .61376956 C .3058268 .6433919 .27360026 .6582031 .23583985 .6582031 C .19677735 .6582031 .16276042 .6422526 .13378906 .61035159 C .10481771 .5784505 .09033203 .5371094 .09033203 .48632813 C .09033203 .44075523 .104003909 .40364585 .13134766 .375 C .15901692 .3466797 .19303386 .33251954 .23339844 .33251954 C .27408854 .33251954 .30745445 .3466797 .3334961 .375 C .35986329 .40364585 .37304688 .44319663 .37304688 .49365235 Z "/>
</symbol>
<use xlink:href="#font_a_1c" transform="matrix(27.638888,0,0,-27.638888,63.183256,553.89846)"/>
</g>
</g>
<clipPath id="cp29">
<path transform="matrix(2.7777777,0,0,2.7777777,-629.49166,-345.88334)" d="M 0 0 L 733.25 0 L 733.25 511.6 L 0 511.6 Z " fill-rule="evenodd"/>
</clipPath>
<g clip-path="url(#cp29)">
<clipPath id="cp30">
<path transform="matrix(2.7777777,0,0,2.7777777,-629.49166,-345.88334)" d="M 226.8 0 L 276.7 0 L 276.7 511.6 L 226.8 511.6 Z " fill-rule="evenodd"/>
</clipPath>
<g clip-path="url(#cp30)">
<symbol id="font_a_13">
<path d="M 0 .36523438 C 0 .44986979 .008626302 .5179036 .025878907 .56933596 C .04345703 .62109377 .06933594 .66097006 .103515628 .68896487 C .13802083 .71695968 .18131511 .73095706 .23339844 .73095706 C .2718099 .73095706 .3055013 .72314456 .33447267 .70751956 C .363444 .69222006 .38736979 .6699219 .40625 .640625 C .42513023 .6116536 .4399414 .5761719 .4506836 .5341797 C .46142579 .49251304 .46679688 .4361979 .46679688 .36523438 C .46679688 .28125 .45817057 .2133789 .44091798 .1616211 C .42366538 .110188808 .39778648 .0703125 .36328126 .041992189 C .32910157 .0139973959 .28580729 0 .23339844 0 C .16438802 0 .110188808 .024739584 .07080078 .07421875 C .02360026 .13378906 0 .23079427 0 .36523438 M .09033203 .36523438 C .09033203 .24772136 .104003909 .1694336 .13134766 .1303711 C .15901692 .09163412 .19303386 .072265628 .23339844 .072265628 C .27376304 .072265628 .3076172 .091796878 .33496095 .13085938 C .36263023 .16992188 .37646485 .24804688 .37646485 .36523438 C .37646485 .4830729 .36263023 .56136068 .33496095 .60009768 C .3076172 .63883468 .2734375 .6582031 .23242188 .6582031 C .1920573 .6582031 .15983074 .6411133 .13574219 .6069336 C .10546875 .5633138 .09033203 .4827474 .09033203 .36523438 Z "/>
</symbol>
<use xlink:href="#font_a_14" transform="matrix(27.638888,0,0,-27.638888,57.406724,609.2555)"/>
<use xlink:href="#font_a_13" transform="matrix(27.638888,0,0,-27.638888,70.96103,609.5929)"/>
</g>
</g>
<clipPath id="cp31">
<path transform="matrix(2.7777777,0,0,2.7777777,-629.49166,-345.88334)" d="M 0 0 L 733.25 0 L 733.25 511.6 L 0 511.6 Z " fill-rule="evenodd"/>
</clipPath>
<g clip-path="url(#cp31)">
<path transform="matrix(2.7777777,0,0,2.7777777,-629.49166,-345.88334)" d="M 386.52 125.04 L 436.44 125.04 L 436.44 150.12 L 386.52 150.12 Z " fill="#5f5f5f" fill-rule="evenodd"/>
<path transform="matrix(2.7777777,0,0,2.7777777,-629.49166,-345.88334)" d="M 436.44 125.04 L 486.36 125.04 L 486.36 150.12 L 436.44 150.12 Z " fill="#5f5f5f" fill-rule="evenodd"/>
<path transform="matrix(2.7777777,0,0,2.7777777,-629.49166,-345.88334)" d="M 486.36 125.04 L 536.16 125.04 L 536.16 150.12 L 486.36 150.12 Z " fill="#5f5f5f" fill-rule="evenodd"/>
<path transform="matrix(2.7777777,0,0,2.7777777,-629.49166,-345.88334)" d="M 386.52 150.12 L 436.44 150.12 L 436.44 170.16 L 386.52 170.16 Z " fill="#cddfd1" fill-rule="evenodd"/>
<path transform="matrix(2.7777777,0,0,2.7777777,-629.49166,-345.88334)" d="M 436.44 150.12 L 486.36 150.12 L 486.36 170.16 L 436.44 170.16 Z " fill="#cddfd1" fill-rule="evenodd"/>
<path transform="matrix(2.7777777,0,0,2.7777777,-629.49166,-345.88334)" d="M 486.36 150.12 L 536.16 150.12 L 536.16 170.16 L 486.36 170.16 Z " fill="#cddfd1" fill-rule="evenodd"/>
<path transform="matrix(2.7777777,0,0,2.7777777,-629.49166,-345.88334)" d="M 386.52 170.16 L 436.44 170.16 L 436.44 190.20001 L 386.52 190.20001 Z " fill="#cddfd1" fill-rule="evenodd"/>
<path transform="matrix(2.7777777,0,0,2.7777777,-629.49166,-345.88334)" d="M 436.44 170.16 L 486.36 170.16 L 486.36 190.20001 L 436.44 190.20001 Z " fill="#cddfd1" fill-rule="evenodd"/>
<path transform="matrix(2.7777777,0,0,2.7777777,-629.49166,-345.88334)" d="M 486.36 170.16 L 536.16 170.16 L 536.16 190.20001 L 486.36 190.20001 Z " fill="#cddfd1" fill-rule="evenodd"/>
<path transform="matrix(2.7777777,0,0,2.7777777,-629.49166,-345.88334)" d="M 386.52 190.2 L 436.44 190.2 L 436.44 210.12 L 386.52 210.12 Z " fill="#cddfd1" fill-rule="evenodd"/>
<path transform="matrix(2.7777777,0,0,2.7777777,-629.49166,-345.88334)" d="M 436.44 190.2 L 486.36 190.2 L 486.36 210.12 L 436.44 210.12 Z " fill="#cddfd1" fill-rule="evenodd"/>
<path transform="matrix(2.7777777,0,0,2.7777777,-629.49166,-345.88334)" d="M 486.36 190.2 L 536.16 190.2 L 536.16 210.12 L 486.36 210.12 Z " fill="#cddfd1" fill-rule="evenodd"/>
<path transform="matrix(2.7777777,0,0,2.7777777,-629.49166,-345.88334)" d="M 386.52 210.12 L 436.44 210.12 L 436.44 230.16 L 386.52 230.16 Z " fill="#cddfd1" fill-rule="evenodd"/>
<path transform="matrix(2.7777777,0,0,2.7777777,-629.49166,-345.88334)" d="M 436.44 210.12 L 486.36 210.12 L 486.36 230.16 L 436.44 230.16 Z " fill="#cddfd1" fill-rule="evenodd"/>
<path transform="matrix(2.7777777,0,0,2.7777777,-629.49166,-345.88334)" d="M 486.36 210.12 L 536.16 210.12 L 536.16 230.16 L 486.36 230.16 Z " fill="#cddfd1" fill-rule="evenodd"/>
<path transform="matrix(2.7777777,0,0,2.7777777,-629.49166,-345.88334)" d="M 386.52 230.16 L 436.44 230.16 L 436.44 250.20001 L 386.52 250.20001 Z " fill="#cddfd1" fill-rule="evenodd"/>
<path transform="matrix(2.7777777,0,0,2.7777777,-629.49166,-345.88334)" d="M 436.44 230.16 L 486.36 230.16 L 486.36 250.20001 L 436.44 250.20001 Z " fill="#cddfd1" fill-rule="evenodd"/>
<path transform="matrix(2.7777777,0,0,2.7777777,-629.49166,-345.88334)" d="M 486.36 230.16 L 536.16 230.16 L 536.16 250.20001 L 486.36 250.20001 Z " fill="#cddfd1" fill-rule="evenodd"/>
<path transform="matrix(2.7777777,0,0,2.7777777,-629.49166,-345.88334)" d="M 386.52 250.2 L 436.44 250.2 L 436.44 270.24 L 386.52 270.24 Z " fill="#cddfd1" fill-rule="evenodd"/>
<path transform="matrix(2.7777777,0,0,2.7777777,-629.49166,-345.88334)" d="M 436.44 250.2 L 486.36 250.2 L 486.36 270.24 L 436.44 270.24 Z " fill="#cddfd1" fill-rule="evenodd"/>
<path transform="matrix(2.7777777,0,0,2.7777777,-629.49166,-345.88334)" d="M 486.36 250.2 L 536.16 250.2 L 536.16 270.24 L 486.36 270.24 Z " fill="#cddfd1" fill-rule="evenodd"/>
<path transform="matrix(2.7777777,0,0,2.7777777,-629.49166,-345.88334)" d="M 386.52 270.24 L 436.44 270.24 L 436.44 290.28 L 386.52 290.28 Z " fill="#cddfd1" fill-rule="evenodd"/>
<path transform="matrix(2.7777777,0,0,2.7777777,-629.49166,-345.88334)" d="M 436.44 270.24 L 486.36 270.24 L 486.36 290.28 L 436.44 290.28 Z " fill="#cddfd1" fill-rule="evenodd"/>
<path transform="matrix(2.7777777,0,0,2.7777777,-629.49166,-345.88334)" d="M 486.36 270.24 L 536.16 270.24 L 536.16 290.28 L 486.36 290.28 Z " fill="#cddfd1" fill-rule="evenodd"/>
<path transform="matrix(2.7777777,0,0,2.7777777,-629.49166,-345.88334)" d="M 386.52 290.28 L 436.44 290.28 L 436.44 310.2 L 386.52 310.2 Z " fill="#cddfd1" fill-rule="evenodd"/>
<path transform="matrix(2.7777777,0,0,2.7777777,-629.49166,-345.88334)" d="M 436.44 290.28 L 486.36 290.28 L 486.36 310.2 L 436.44 310.2 Z " fill="#cddfd1" fill-rule="evenodd"/>
<path transform="matrix(2.7777777,0,0,2.7777777,-629.49166,-345.88334)" d="M 486.36 290.28 L 536.16 290.28 L 536.16 310.2 L 486.36 310.2 Z " fill="#cddfd1" fill-rule="evenodd"/>
<path transform="matrix(2.7777777,0,0,2.7777777,-629.49166,-345.88334)" d="M 386.52 310.2 L 436.44 310.2 L 436.44 330.36003 L 386.52 330.36003 Z " fill="#cddfd1" fill-rule="evenodd"/>
<path transform="matrix(2.7777777,0,0,2.7777777,-629.49166,-345.88334)" d="M 436.44 310.2 L 486.36 310.2 L 486.36 330.36003 L 436.44 330.36003 Z " fill="#cddfd1" fill-rule="evenodd"/>
<path transform="matrix(2.7777777,0,0,2.7777777,-629.49166,-345.88334)" d="M 486.36 310.2 L 536.16 310.2 L 536.16 330.36003 L 486.36 330.36003 Z " fill="#cddfd1" fill-rule="evenodd"/>
<path transform="matrix(2.7777777,0,0,2.7777777,-629.49166,-345.88334)" d="M 386.52 330.36 L 436.44 330.36 L 436.44 350.28 L 386.52 350.28 Z " fill="#cddfd1" fill-rule="evenodd"/>
<path transform="matrix(2.7777777,0,0,2.7777777,-629.49166,-345.88334)" d="M 436.44 330.36 L 486.36 330.36 L 486.36 350.28 L 436.44 350.28 Z " fill="#cddfd1" fill-rule="evenodd"/>
<path transform="matrix(2.7777777,0,0,2.7777777,-629.49166,-345.88334)" d="M 486.36 330.36 L 536.16 330.36 L 536.16 350.28 L 486.36 350.28 Z " fill="#cddfd1" fill-rule="evenodd"/>
<path transform="matrix(2.7777777,0,0,2.7777777,-629.49166,-345.88334)" d="M 386.5 124.5 L 536.2 124.5 L 536.2 125.5 L 386.5 125.5 Z " fill="#ffffff"/>
<path transform="matrix(2.7777777,0,0,2.7777777,-629.49166,-345.88334)" d="M 386.5 148.6 L 536.2 148.6 L 536.2 151.6 L 386.5 151.6 Z " fill="#ffffff"/>
<path transform="matrix(2.7777777,0,0,2.7777777,-629.49166,-345.88334)" d="M 387 125 L 387 350.3 L 386 350.3 L 386 125 L 387 125 " fill="#ffffff"/>
<path transform="matrix(2.7777777,0,0,2.7777777,-629.49166,-345.88334)" d="M 436.9 125 L 436.9 350.3 L 435.9 350.3 L 435.9 125 L 436.9 125 " fill="#ffffff"/>
<path transform="matrix(2.7777777,0,0,2.7777777,-629.49166,-345.88334)" d="M 486.8 125 L 486.8 350.3 L 485.8 350.3 L 485.8 125 L 486.8 125 " fill="#ffffff"/>
<path transform="matrix(2.7777777,0,0,2.7777777,-629.49166,-345.88334)" d="M 536.7 125 L 536.7 350.3 L 535.7 350.3 L 535.7 125 L 536.7 125 " fill="#ffffff"/>
<path transform="matrix(2.7777777,0,0,2.7777777,-629.49166,-345.88334)" d="M 386.5 169.65 L 536.2 169.65 L 536.2 170.65 L 386.5 170.65 Z " fill="#ffffff"/>
<path transform="matrix(2.7777777,0,0,2.7777777,-629.49166,-345.88334)" d="M 386.5 189.65 L 536.2 189.65 L 536.2 190.65 L 386.5 190.65 Z " fill="#ffffff"/>
<path transform="matrix(2.7777777,0,0,2.7777777,-629.49166,-345.88334)" d="M 386.5 209.65 L 536.2 209.65 L 536.2 210.65 L 386.5 210.65 Z " fill="#ffffff"/>
<path transform="matrix(2.7777777,0,0,2.7777777,-629.49166,-345.88334)" d="M 386.5 229.7 L 536.2 229.7 L 536.2 230.7 L 386.5 230.7 Z " fill="#ffffff"/>
<path transform="matrix(2.7777777,0,0,2.7777777,-629.49166,-345.88334)" d="M 386.5 249.7 L 536.2 249.7 L 536.2 250.7 L 386.5 250.7 Z " fill="#ffffff"/>
<path transform="matrix(2.7777777,0,0,2.7777777,-629.49166,-345.88334)" d="M 386.5 269.75 L 536.2 269.75 L 536.2 270.75 L 386.5 270.75 Z " fill="#ffffff"/>
<path transform="matrix(2.7777777,0,0,2.7777777,-629.49166,-345.88334)" d="M 386.5 289.75 L 536.2 289.75 L 536.2 290.75 L 386.5 290.75 Z " fill="#ffffff"/>
<path transform="matrix(2.7777777,0,0,2.7777777,-629.49166,-345.88334)" d="M 386.5 309.75 L 536.2 309.75 L 536.2 310.75 L 386.5 310.75 Z " fill="#ffffff"/>
<path transform="matrix(2.7777777,0,0,2.7777777,-629.49166,-345.88334)" d="M 386.5 329.8 L 536.2 329.8 L 536.2 330.8 L 386.5 330.8 Z " fill="#ffffff"/>
<path transform="matrix(2.7777777,0,0,2.7777777,-629.49166,-345.88334)" d="M 386.5 349.8 L 536.2 349.8 L 536.2 350.8 L 386.5 350.8 Z " fill="#ffffff"/>
</g>
<clipPath id="cp32">
<path transform="matrix(2.7777777,0,0,2.7777777,-629.49166,-345.88334)" d="M 0 0 L 733.25 0 L 733.25 511.6 L 0 511.6 Z " fill-rule="evenodd"/>
</clipPath>
<g clip-path="url(#cp32)">
<clipPath id="cp33">
<path transform="matrix(2.7777777,0,0,2.7777777,-629.49166,-345.88334)" d="M 386.5 0 L 436.4 0 L 436.4 511.6 L 386.5 511.6 Z " fill-rule="evenodd"/>
</clipPath>
<g clip-path="url(#cp33)">
<use xlink:href="#font_3_35" transform="matrix(27.638888,0,0,-27.638888,481.5766,45.783327)" fill="#ffffff"/>
<use xlink:href="#font_3_44" transform="matrix(27.638888,0,0,-27.638888,502.30549,45.958768)" fill="#ffffff"/>
<use xlink:href="#font_3_51" transform="matrix(27.638888,0,0,-27.638888,515.8975,45.783327)" fill="#ffffff"/>
<use xlink:href="#font_3_4e" transform="matrix(27.638888,0,0,-27.638888,531.2872,45.783327)" fill="#ffffff"/>
</g>
</g>
<clipPath id="cp34">
<path transform="matrix(2.7777777,0,0,2.7777777,-629.49166,-345.88334)" d="M 0 0 L 733.25 0 L 733.25 511.6 L 0 511.6 Z " fill-rule="evenodd"/>
</clipPath>
<g clip-path="url(#cp34)">
<clipPath id="cp35">
<path transform="matrix(2.7777777,0,0,2.7777777,-629.49166,-345.88334)" d="M 436.4 0 L 486.3 0 L 486.3 511.6 L 436.4 511.6 Z " fill-rule="evenodd"/>
</clipPath>
<g clip-path="url(#cp35)">
<use xlink:href="#font_3_30" transform="matrix(27.638888,0,0,-27.638888,614.6728,45.783327)" fill="#ffffff"/>
<use xlink:href="#font_3_52" transform="matrix(27.638888,0,0,-27.638888,641.3681,46.1612)" fill="#ffffff"/>
<use xlink:href="#font_3_47" transform="matrix(27.638888,0,0,-27.638888,655.3245,46.1612)" fill="#ffffff"/>
<use xlink:href="#font_3_48" transform="matrix(27.638888,0,0,-27.638888,670.74118,46.1612)" fill="#ffffff"/>
<use xlink:href="#font_3_4f" transform="matrix(27.638888,0,0,-27.638888,682.6165,45.783327)" fill="#ffffff"/>
</g>
</g>
<clipPath id="cp36">
<path transform="matrix(2.7777777,0,0,2.7777777,-629.49166,-345.88334)" d="M 0 0 L 733.25 0 L 733.25 511.6 L 0 511.6 Z " fill-rule="evenodd"/>
</clipPath>
<g clip-path="url(#cp36)">
<clipPath id="cp37">
<path transform="matrix(2.7777777,0,0,2.7777777,-629.49166,-345.88334)" d="M 486.3 0 L 536.2 0 L 536.2 511.6 L 486.3 511.6 Z " fill-rule="evenodd"/>
</clipPath>
<g clip-path="url(#cp37)">
<use xlink:href="#font_3_36" transform="matrix(27.638888,0,0,-27.638888,758.88327,46.215185)" fill="#ffffff"/>
<use xlink:href="#font_3_46" transform="matrix(27.638888,0,0,-27.638888,773.922,46.1612)" fill="#ffffff"/>
<use xlink:href="#font_3_52" transform="matrix(27.638888,0,0,-27.638888,786.2292,46.1612)" fill="#ffffff"/>
<use xlink:href="#font_3_55" transform="matrix(27.638888,0,0,-27.638888,800.1315,45.783327)" fill="#ffffff"/>
<use xlink:href="#font_3_48" transform="matrix(27.638888,0,0,-27.638888,812.5467,46.1612)" fill="#ffffff"/>
</g>
</g>
<clipPath id="cp38">
<path transform="matrix(2.7777777,0,0,2.7777777,-629.49166,-345.88334)" d="M 0 0 L 733.25 0 L 733.25 511.6 L 0 511.6 Z " fill-rule="evenodd"/>
</clipPath>
<g clip-path="url(#cp38)">
<clipPath id="cp39">
<path transform="matrix(2.7777777,0,0,2.7777777,-629.49166,-345.88334)" d="M 386.5 0 L 436.4 0 L 436.4 511.6 L 386.5 511.6 Z " fill-rule="evenodd"/>
</clipPath>
<g clip-path="url(#cp39)">
<use xlink:href="#font_a_14" transform="matrix(27.638888,0,0,-27.638888,501.01789,108.69998)"/>
<use xlink:href="#font_a_14" transform="matrix(27.638888,0,0,-27.638888,516.4345,108.69998)"/>
</g>
</g>
<clipPath id="cp40">
<path transform="matrix(2.7777777,0,0,2.7777777,-629.49166,-345.88334)" d="M 0 0 L 733.25 0 L 733.25 511.6 L 0 511.6 Z " fill-rule="evenodd"/>
</clipPath>
<g clip-path="url(#cp40)">
<clipPath id="cp41">
<path transform="matrix(2.7777777,0,0,2.7777777,-629.49166,-345.88334)" d="M 386.5 0 L 436.4 0 L 436.4 511.6 L 386.5 511.6 Z " fill-rule="evenodd"/>
</clipPath>
<g clip-path="url(#cp41)">
<use xlink:href="#font_a_14" transform="matrix(27.638888,0,0,-27.638888,501.01789,164.39441)"/>
<use xlink:href="#font_a_15" transform="matrix(27.638888,0,0,-27.638888,514.2437,164.39441)"/>
</g>
</g>
<clipPath id="cp42">
<path transform="matrix(2.7777777,0,0,2.7777777,-629.49166,-345.88334)" d="M 0 0 L 733.25 0 L 733.25 511.6 L 0 511.6 Z " fill-rule="evenodd"/>
</clipPath>
<g clip-path="url(#cp42)">
<clipPath id="cp43">
<path transform="matrix(2.7777777,0,0,2.7777777,-629.49166,-345.88334)" d="M 386.5 0 L 436.4 0 L 436.4 511.6 L 386.5 511.6 Z " fill-rule="evenodd"/>
</clipPath>
<g clip-path="url(#cp43)">
<use xlink:href="#font_a_14" transform="matrix(27.638888,0,0,-27.638888,501.01789,219.94998)"/>
<use xlink:href="#font_a_16" transform="matrix(27.638888,0,0,-27.638888,514.58566,220.30088)"/>
</g>
</g>
<clipPath id="cp44">
<path transform="matrix(2.7777777,0,0,2.7777777,-629.49166,-345.88334)" d="M 0 0 L 733.25 0 L 733.25 511.6 L 0 511.6 Z " fill-rule="evenodd"/>
</clipPath>
<g clip-path="url(#cp44)">
<clipPath id="cp45">
<path transform="matrix(2.7777777,0,0,2.7777777,-629.49166,-345.88334)" d="M 386.5 0 L 436.4 0 L 436.4 511.6 L 386.5 511.6 Z " fill-rule="evenodd"/>
</clipPath>
<g clip-path="url(#cp45)">
<use xlink:href="#font_a_14" transform="matrix(27.638888,0,0,-27.638888,501.01789,275.50553)"/>
<use xlink:href="#font_a_17" transform="matrix(27.638888,0,0,-27.638888,513.7759,275.50553)"/>
</g>
</g>
<clipPath id="cp46">
<path transform="matrix(2.7777777,0,0,2.7777777,-629.49166,-345.88334)" d="M 0 0 L 733.25 0 L 733.25 511.6 L 0 511.6 Z " fill-rule="evenodd"/>
</clipPath>
<g clip-path="url(#cp46)">
<clipPath id="cp47">
<path transform="matrix(2.7777777,0,0,2.7777777,-629.49166,-345.88334)" d="M 386.5 0 L 436.4 0 L 436.4 511.6 L 386.5 511.6 Z " fill-rule="evenodd"/>
</clipPath>
<g clip-path="url(#cp47)">
<use xlink:href="#font_a_14" transform="matrix(27.638888,0,0,-27.638888,501.01789,331.19999)"/>
<use xlink:href="#font_a_18" transform="matrix(27.638888,0,0,-27.638888,514.5721,331.53739)"/>
</g>
</g>
<clipPath id="cp48">
<path transform="matrix(2.7777777,0,0,2.7777777,-629.49166,-345.88334)" d="M 0 0 L 733.25 0 L 733.25 511.6 L 0 511.6 Z " fill-rule="evenodd"/>
</clipPath>
<g clip-path="url(#cp48)">
<clipPath id="cp49">
<path transform="matrix(2.7777777,0,0,2.7777777,-629.49166,-345.88334)" d="M 386.5 0 L 436.4 0 L 436.4 511.6 L 386.5 511.6 Z " fill-rule="evenodd"/>
</clipPath>
<g clip-path="url(#cp49)">
<use xlink:href="#font_a_14" transform="matrix(27.638888,0,0,-27.638888,501.01789,386.75553)"/>
<use xlink:href="#font_a_19" transform="matrix(27.638888,0,0,-27.638888,514.4642,387.09294)"/>
</g>
</g>
<clipPath id="cp50">
<path transform="matrix(2.7777777,0,0,2.7777777,-629.49166,-345.88334)" d="M 0 0 L 733.25 0 L 733.25 511.6 L 0 511.6 Z " fill-rule="evenodd"/>
</clipPath>
<g clip-path="url(#cp50)">
<clipPath id="cp51">
<path transform="matrix(2.7777777,0,0,2.7777777,-629.49166,-345.88334)" d="M 386.5 0 L 436.4 0 L 436.4 511.6 L 386.5 511.6 Z " fill-rule="evenodd"/>
</clipPath>
<g clip-path="url(#cp51)">
<use xlink:href="#font_a_14" transform="matrix(27.638888,0,0,-27.638888,501.01789,442.44993)"/>
<use xlink:href="#font_a_1a" transform="matrix(27.638888,0,0,-27.638888,514.7341,442.44993)"/>
</g>
</g>
<clipPath id="cp52">
<path transform="matrix(2.7777777,0,0,2.7777777,-629.49166,-345.88334)" d="M 0 0 L 733.25 0 L 733.25 511.6 L 0 511.6 Z " fill-rule="evenodd"/>
</clipPath>
<g clip-path="url(#cp52)">
<clipPath id="cp53">
<path transform="matrix(2.7777777,0,0,2.7777777,-629.49166,-345.88334)" d="M 386.5 0 L 436.4 0 L 436.4 511.6 L 386.5 511.6 Z " fill-rule="evenodd"/>
</clipPath>
<g clip-path="url(#cp53)">
<use xlink:href="#font_a_14" transform="matrix(27.638888,0,0,-27.638888,501.01789,498.00547)"/>
<use xlink:href="#font_a_1b" transform="matrix(27.638888,0,0,-27.638888,514.5451,498.34288)"/>
</g>
</g>
<clipPath id="cp54">
<path transform="matrix(2.7777777,0,0,2.7777777,-629.49166,-345.88334)" d="M 0 0 L 733.25 0 L 733.25 511.6 L 0 511.6 Z " fill-rule="evenodd"/>
</clipPath>
<g clip-path="url(#cp54)">
<clipPath id="cp55">
<path transform="matrix(2.7777777,0,0,2.7777777,-629.49166,-345.88334)" d="M 386.5 0 L 436.4 0 L 436.4 511.6 L 386.5 511.6 Z " fill-rule="evenodd"/>
</clipPath>
<g clip-path="url(#cp55)">
<use xlink:href="#font_a_14" transform="matrix(27.638888,0,0,-27.638888,501.01789,553.56106)"/>
<use xlink:href="#font_a_1c" transform="matrix(27.638888,0,0,-27.638888,514.5721,553.89846)"/>
</g>
</g>
<clipPath id="cp56">
<path transform="matrix(2.7777777,0,0,2.7777777,-629.49166,-345.88334)" d="M 0 0 L 733.25 0 L 733.25 511.6 L 0 511.6 Z " fill-rule="evenodd"/>
</clipPath>
<g clip-path="url(#cp56)">
<clipPath id="cp57">
<path transform="matrix(2.7777777,0,0,2.7777777,-629.49166,-345.88334)" d="M 386.5 0 L 436.4 0 L 436.4 511.6 L 386.5 511.6 Z " fill-rule="evenodd"/>
</clipPath>
<g clip-path="url(#cp57)">
<use xlink:href="#font_a_15" transform="matrix(27.638888,0,0,-27.638888,498.8271,609.2555)"/>
<use xlink:href="#font_a_13" transform="matrix(27.638888,0,0,-27.638888,514.5721,609.5929)"/>
</g>
</g>
</g>
</svg>
